<mxfile host="app.diagrams.net" modified="2020-12-11T07:52:59.957Z" agent="5.0 (Windows NT 10.0; Win64; x64) AppleWebKit/537.36 (KHTML, like Gecko) Chrome/87.0.4280.88 Safari/537.36 Edg/87.0.664.57" etag="qZxoPenmOLHXIMwV5H2X" version="14.0.1" type="github">
  <diagram name="Page-1" id="74e2e168-ea6b-b213-b513-2b3c1d86103e">
    <mxGraphModel dx="1422" dy="762" grid="1" gridSize="10" guides="1" tooltips="1" connect="1" arrows="1" fold="1" page="1" pageScale="1" pageWidth="1100" pageHeight="850" background="#ffffff" math="0" shadow="0">
      <root>
        <mxCell id="0" />
        <mxCell id="1" parent="0" />
        <mxCell id="j6nEsNIP5yghgY8RAqFA-28" value="" style="edgeStyle=orthogonalEdgeStyle;rounded=0;orthogonalLoop=1;jettySize=auto;html=1;" edge="1" parent="1" source="j6nEsNIP5yghgY8RAqFA-1" target="j6nEsNIP5yghgY8RAqFA-4">
          <mxGeometry relative="1" as="geometry" />
        </mxCell>
        <mxCell id="j6nEsNIP5yghgY8RAqFA-1" value="" style="rounded=1;whiteSpace=wrap;html=1;" vertex="1" parent="1">
          <mxGeometry x="300" y="220" width="410" height="200" as="geometry" />
        </mxCell>
        <mxCell id="j6nEsNIP5yghgY8RAqFA-2" value="SqlMapConfig.xml" style="rounded=0;whiteSpace=wrap;html=1;" vertex="1" parent="1">
          <mxGeometry x="445" y="260" width="120" height="60" as="geometry" />
        </mxCell>
        <mxCell id="j6nEsNIP5yghgY8RAqFA-3" value="com/nari/dao/IUserDao.xml" style="rounded=0;whiteSpace=wrap;html=1;" vertex="1" parent="1">
          <mxGeometry x="395" y="340" width="220" height="60" as="geometry" />
        </mxCell>
        <mxCell id="j6nEsNIP5yghgY8RAqFA-30" value="" style="edgeStyle=orthogonalEdgeStyle;rounded=0;orthogonalLoop=1;jettySize=auto;html=1;" edge="1" parent="1" source="j6nEsNIP5yghgY8RAqFA-4" target="j6nEsNIP5yghgY8RAqFA-7">
          <mxGeometry relative="1" as="geometry" />
        </mxCell>
        <mxCell id="j6nEsNIP5yghgY8RAqFA-4" value="SqlSessionFactory" style="rounded=1;whiteSpace=wrap;html=1;" vertex="1" parent="1">
          <mxGeometry x="445" y="460" width="120" height="60" as="geometry" />
        </mxCell>
        <mxCell id="j6nEsNIP5yghgY8RAqFA-5" value="Mybatis配置文件" style="text;html=1;strokeColor=none;fillColor=none;align=center;verticalAlign=middle;whiteSpace=wrap;rounded=0;" vertex="1" parent="1">
          <mxGeometry x="450" y="230" width="100" height="20" as="geometry" />
        </mxCell>
        <mxCell id="j6nEsNIP5yghgY8RAqFA-31" value="" style="edgeStyle=orthogonalEdgeStyle;rounded=0;orthogonalLoop=1;jettySize=auto;html=1;" edge="1" parent="1" source="j6nEsNIP5yghgY8RAqFA-7" target="j6nEsNIP5yghgY8RAqFA-8">
          <mxGeometry relative="1" as="geometry" />
        </mxCell>
        <mxCell id="j6nEsNIP5yghgY8RAqFA-7" value="SqlSession" style="rounded=1;whiteSpace=wrap;html=1;" vertex="1" parent="1">
          <mxGeometry x="445" y="560" width="120" height="60" as="geometry" />
        </mxCell>
        <mxCell id="j6nEsNIP5yghgY8RAqFA-32" value="" style="edgeStyle=orthogonalEdgeStyle;rounded=0;orthogonalLoop=1;jettySize=auto;html=1;" edge="1" parent="1" source="j6nEsNIP5yghgY8RAqFA-8" target="j6nEsNIP5yghgY8RAqFA-11">
          <mxGeometry relative="1" as="geometry" />
        </mxCell>
        <mxCell id="j6nEsNIP5yghgY8RAqFA-8" value="Executor" style="rounded=1;whiteSpace=wrap;html=1;" vertex="1" parent="1">
          <mxGeometry x="445" y="660" width="120" height="60" as="geometry" />
        </mxCell>
        <mxCell id="j6nEsNIP5yghgY8RAqFA-33" value="" style="edgeStyle=orthogonalEdgeStyle;rounded=0;orthogonalLoop=1;jettySize=auto;html=1;" edge="1" parent="1" source="j6nEsNIP5yghgY8RAqFA-11" target="j6nEsNIP5yghgY8RAqFA-27">
          <mxGeometry relative="1" as="geometry" />
        </mxCell>
        <mxCell id="j6nEsNIP5yghgY8RAqFA-36" style="edgeStyle=orthogonalEdgeStyle;rounded=0;orthogonalLoop=1;jettySize=auto;html=1;entryX=0;entryY=0.5;entryDx=0;entryDy=0;" edge="1" parent="1" source="j6nEsNIP5yghgY8RAqFA-11" target="j6nEsNIP5yghgY8RAqFA-18">
          <mxGeometry relative="1" as="geometry">
            <mxPoint x="730" y="780" as="targetPoint" />
          </mxGeometry>
        </mxCell>
        <mxCell id="j6nEsNIP5yghgY8RAqFA-11" value="MappedStatement" style="rounded=1;whiteSpace=wrap;html=1;" vertex="1" parent="1">
          <mxGeometry x="445" y="760" width="120" height="60" as="geometry" />
        </mxCell>
        <mxCell id="j6nEsNIP5yghgY8RAqFA-24" value="" style="group" vertex="1" connectable="0" parent="1">
          <mxGeometry x="180" y="690" width="120" height="200" as="geometry" />
        </mxCell>
        <mxCell id="j6nEsNIP5yghgY8RAqFA-12" value="" style="rounded=1;whiteSpace=wrap;html=1;" vertex="1" parent="j6nEsNIP5yghgY8RAqFA-24">
          <mxGeometry width="120" height="200" as="geometry" />
        </mxCell>
        <mxCell id="j6nEsNIP5yghgY8RAqFA-13" value="输入映射" style="text;html=1;strokeColor=none;fillColor=none;align=center;verticalAlign=middle;whiteSpace=wrap;rounded=0;" vertex="1" parent="j6nEsNIP5yghgY8RAqFA-24">
          <mxGeometry x="35" y="10" width="50" height="20" as="geometry" />
        </mxCell>
        <mxCell id="j6nEsNIP5yghgY8RAqFA-14" value="Map" style="rounded=0;whiteSpace=wrap;html=1;" vertex="1" parent="j6nEsNIP5yghgY8RAqFA-24">
          <mxGeometry x="30" y="45" width="60" height="30" as="geometry" />
        </mxCell>
        <mxCell id="j6nEsNIP5yghgY8RAqFA-15" value="String,Interger等基础数据类型" style="rounded=0;whiteSpace=wrap;html=1;" vertex="1" parent="j6nEsNIP5yghgY8RAqFA-24">
          <mxGeometry x="25" y="90" width="80" height="40" as="geometry" />
        </mxCell>
        <mxCell id="j6nEsNIP5yghgY8RAqFA-16" value="Pojo" style="rounded=0;whiteSpace=wrap;html=1;" vertex="1" parent="j6nEsNIP5yghgY8RAqFA-24">
          <mxGeometry x="25" y="150" width="70" height="30" as="geometry" />
        </mxCell>
        <mxCell id="j6nEsNIP5yghgY8RAqFA-17" style="edgeStyle=orthogonalEdgeStyle;rounded=0;orthogonalLoop=1;jettySize=auto;html=1;exitX=0.5;exitY=1;exitDx=0;exitDy=0;" edge="1" parent="j6nEsNIP5yghgY8RAqFA-24" source="j6nEsNIP5yghgY8RAqFA-16" target="j6nEsNIP5yghgY8RAqFA-16">
          <mxGeometry relative="1" as="geometry" />
        </mxCell>
        <mxCell id="j6nEsNIP5yghgY8RAqFA-25" value="" style="group" vertex="1" connectable="0" parent="1">
          <mxGeometry x="750" y="690" width="120" height="200" as="geometry" />
        </mxCell>
        <mxCell id="j6nEsNIP5yghgY8RAqFA-18" value="" style="rounded=1;whiteSpace=wrap;html=1;" vertex="1" parent="j6nEsNIP5yghgY8RAqFA-25">
          <mxGeometry width="120" height="200" as="geometry" />
        </mxCell>
        <mxCell id="j6nEsNIP5yghgY8RAqFA-19" value="输入映射" style="text;html=1;strokeColor=none;fillColor=none;align=center;verticalAlign=middle;whiteSpace=wrap;rounded=0;" vertex="1" parent="j6nEsNIP5yghgY8RAqFA-25">
          <mxGeometry x="35" y="10" width="50" height="20" as="geometry" />
        </mxCell>
        <mxCell id="j6nEsNIP5yghgY8RAqFA-20" value="Map" style="rounded=0;whiteSpace=wrap;html=1;" vertex="1" parent="j6nEsNIP5yghgY8RAqFA-25">
          <mxGeometry x="30" y="45" width="60" height="30" as="geometry" />
        </mxCell>
        <mxCell id="j6nEsNIP5yghgY8RAqFA-21" value="String,Interger等基础数据类型" style="rounded=0;whiteSpace=wrap;html=1;" vertex="1" parent="j6nEsNIP5yghgY8RAqFA-25">
          <mxGeometry x="25" y="90" width="80" height="40" as="geometry" />
        </mxCell>
        <mxCell id="j6nEsNIP5yghgY8RAqFA-22" value="Pojo" style="rounded=0;whiteSpace=wrap;html=1;" vertex="1" parent="j6nEsNIP5yghgY8RAqFA-25">
          <mxGeometry x="25" y="150" width="70" height="30" as="geometry" />
        </mxCell>
        <mxCell id="j6nEsNIP5yghgY8RAqFA-23" style="edgeStyle=orthogonalEdgeStyle;rounded=0;orthogonalLoop=1;jettySize=auto;html=1;exitX=0.5;exitY=1;exitDx=0;exitDy=0;" edge="1" source="j6nEsNIP5yghgY8RAqFA-22" target="j6nEsNIP5yghgY8RAqFA-22" parent="j6nEsNIP5yghgY8RAqFA-25">
          <mxGeometry relative="1" as="geometry" />
        </mxCell>
        <mxCell id="j6nEsNIP5yghgY8RAqFA-27" value="数据库" style="shape=cylinder3;whiteSpace=wrap;html=1;boundedLbl=1;backgroundOutline=1;size=15;" vertex="1" parent="1">
          <mxGeometry x="475" y="880" width="60" height="80" as="geometry" />
        </mxCell>
        <mxCell id="j6nEsNIP5yghgY8RAqFA-35" style="edgeStyle=orthogonalEdgeStyle;rounded=0;orthogonalLoop=1;jettySize=auto;html=1;exitX=1;exitY=0.5;exitDx=0;exitDy=0;entryX=0;entryY=0.5;entryDx=0;entryDy=0;" edge="1" parent="1" source="j6nEsNIP5yghgY8RAqFA-12" target="j6nEsNIP5yghgY8RAqFA-11">
          <mxGeometry relative="1" as="geometry" />
        </mxCell>
      </root>
    </mxGraphModel>
  </diagram>
</mxfile>
